<svg xmlns="http://www.w3.org/2000/svg" viewBox="0 0 120 140">
  <!-- leaves -->
  <path d="M60 8 C55 22 50 30 40 34 C50 32 58 26 60 16 C62 26 70 32 80 34 C70 30 65 22 60 8 Z" fill="#4a7c3f"/>
  <path d="M60 4 C57 16 54 22 46 26 C54 24 60 20 60 12 C60 20 66 24 74 26 C66 22 63 16 60 4 Z" fill="#6ea852"/>
  <!-- body -->
  <rect x="38" y="30" width="44" height="90" rx="14" fill="#e0c14a"/>
  <rect x="38" y="30" width="44" height="90" rx="14" fill="none" stroke="#8a6b1f" stroke-width="2"/>
  <!-- segment lines -->
  <line x1="38" y1="52" x2="82" y2="52" stroke="#8a6b1f" stroke-width="2"/>
  <line x1="38" y1="74" x2="82" y2="74" stroke="#8a6b1f" stroke-width="2"/>
  <line x1="38" y1="96" x2="82" y2="96" stroke="#8a6b1f" stroke-width="2"/>
  <!-- sunglasses -->
  <rect x="44" y="58" width="14" height="10" rx="3" fill="#1f3d24"/>
  <rect x="62" y="58" width="14" height="10" rx="3" fill="#1f3d24"/>
  <line x1="58" y1="62" x2="62" y2="62" stroke="#1f3d24" stroke-width="2"/>
  <!-- smile -->
  <path d="M50 74 Q60 82 70 74" fill="none" stroke="#5a3d1a" stroke-width="2.5" stroke-linecap="round"/>
  <!-- arms -->
  <path d="M38 90 Q22 84 18 68" fill="none" stroke="#e0c14a" stroke-width="8" stroke-linecap="round"/>
  <path d="M82 90 Q98 84 102 68" fill="none" stroke="#e0c14a" stroke-width="8" stroke-linecap="round"/>
  <!-- legs -->
  <rect x="44" y="118" width="10" height="18" rx="4" fill="#e0c14a"/>
  <rect x="66" y="118" width="10" height="18" rx="4" fill="#e0c14a"/>
</svg>
