<svg xmlns="http://www.w3.org/2000/svg" viewBox="0 0 300 380" fill="none" role="img" aria-label="Map of the United Kingdom">
  <!-- Great Britain (stylised silhouette) -->
  <path d="M150 18c8 6 6 16 12 22 7 7 2 16 9 21 6 5 16 4 16 13 0 7-9 9-9 16 0 8 11 9 12 17 1 9-12 11-12 20 0 8 9 12 7 20-2 7-12 7-15 14-4 8 4 17-2 24-5 6-15 4-21 9-7 6-6 17-14 21-7 4-15-2-22 2-7 4-7 14-15 16-8 2-15-5-22-2-8 3-10 14-19 13-8-1-9-12-16-15-7-3-16 2-21-5-4-6 2-15-3-21-5-7-16-6-19-14-3-8 6-16 2-23-3-6-13-6-14-13-1-8 9-12 9-20 0-7-9-11-7-18 2-7 12-7 16-13 4-7-2-16 4-22 5-6 15-3 21-9 6-6 4-17 12-21 7-4 16 1 22-4 6-5 4-15 11-19 6-3 13 1 19-2 6-3 7-12 13-12 5 0 8 6 13 7z"
        fill="#d9e6cf" stroke="#b7791f" stroke-width="1.5" stroke-opacity=".5"/>
  <!-- Ireland (stylised) -->
  <path d="M52 196c6-4 14 0 16 7 3 9-3 18-1 27 2 8 10 14 6 22-4 7-15 4-21 10-5 5-3 15-11 16-7 1-11-8-12-15-1-9 6-17 4-26-2-8-11-13-9-22 2-8 13-9 17-16 3-5 5-12 11-15z"
        fill="#d9e6cf" stroke="#b7791f" stroke-width="1.5" stroke-opacity=".5"/>

  <!-- Location pins -->
  <g fill="#16243f">
    <path d="M150 110a13 13 0 0 0-13 13c0 9 13 21 13 21s13-12 13-21a13 13 0 0 0-13-13z"/>
    <circle cx="150" cy="123" r="5" fill="#fff"/>
  </g>
  <g fill="#b7791f">
    <path d="M118 196a11 11 0 0 0-11 11c0 8 11 18 11 18s11-10 11-18a11 11 0 0 0-11-11z"/>
    <circle cx="118" cy="207" r="4" fill="#fff"/>
  </g>
  <g fill="#16243f">
    <path d="M178 250a10 10 0 0 0-10 10c0 7 10 16 10 16s10-9 10-16a10 10 0 0 0-10-10z"/>
    <circle cx="178" cy="260" r="3.6" fill="#fff"/>
  </g>
</svg>
